<?xml version="1.0" standalone="no"?>
<!DOCTYPE svg PUBLIC "-//W3C//DTD SVG 20010904//EN"
 "http://www.w3.org/TR/2001/REC-SVG-20010904/DTD/svg10.dtd">
<svg version="1.0" xmlns="http://www.w3.org/2000/svg"
 width="32.000000pt" height="32.000000pt" viewBox="0 0 32.000000 32.000000"
 preserveAspectRatio="xMidYMid meet">

<g transform="translate(0.000000,32.000000) scale(0.100000,-0.100000)"
fill="#000000" stroke="none">
<path d="M95 293 c15 -36 18 -224 4 -249 -9 -18 -10 -27 -2 -35 16 -16 36 0
30 22 -6 23 9 25 21 3 7 -13 18 -15 45 -10 19 4 38 13 41 21 4 12 -3 13 -40 8
-42 -5 -46 -4 -42 13 2 11 13 20 28 22 41 6 50 24 10 21 -19 -2 -41 0 -47 4
-7 4 -13 0 -16 -10 -4 -17 -5 -17 -6 0 -1 26 23 47 53 47 14 0 26 5 26 10 0 6
-18 10 -41 10 -22 0 -38 4 -34 9 3 5 1 12 -5 16 -18 11 -10 22 21 29 29 5 30
8 24 38 -10 46 -12 48 -47 48 -25 0 -29 -3 -23 -17z"/>
</g>
</svg>
